<svg width="256" height="256" viewBox="0 0 256 256" fill="none" xmlns="http://www.w3.org/2000/svg">
<rect width="256" height="256" rx="16" fill="#FCAC10"/>
<path d="M95.32 142.344C93.976 139.432 92.464 137.472 90.784 136.464C89.104 135.456 87.144 134.952 84.904 134.952H84.736H66.928V183H50.8V65.4H84.736C91.456 65.4 97.336 66.352 102.376 68.256C107.416 70.048 111.56 72.568 114.808 75.816C118.168 78.952 120.688 82.648 122.368 86.904C124.048 91.16 124.888 95.752 124.888 100.68C124.888 107.96 123.152 114.288 119.68 119.664C116.32 125.04 111.224 129.072 104.392 131.76C105.96 132.88 107.192 134.168 108.088 135.624C109.096 136.968 109.936 138.312 110.608 139.656L131.608 183H113.968L95.32 142.344ZM66.928 78.504V121.848H84.736C89.552 121.848 93.528 121.232 96.664 120C99.8 118.656 102.264 116.976 104.056 114.96C105.96 112.944 107.304 110.648 108.088 108.072C108.872 105.496 109.264 102.864 109.264 100.176C109.264 97.6 108.872 95.024 108.088 92.448C107.304 89.872 105.96 87.576 104.056 85.56C102.264 83.432 99.8 81.752 96.664 80.52C93.528 79.176 89.552 78.504 84.736 78.504H66.928Z" fill="#2D2D2D"/>
<rect x="143" y="64" width="79" height="119" fill="#2D2D2D"/>
</svg>
