<svg width="256" height="256" viewBox="0 0 256 256" fill="none" xmlns="http://www.w3.org/2000/svg">
<circle cx="128" cy="128" r="128" fill="#FCAC10"/>
<rect x="140" y="69" width="80" height="119" fill="#2D2D2D"/>
<path d="M87.3633 139.273H63.4922V188H48.3984V68.5625H83.4258C89.0039 68.6719 94.2539 69.4648 99.1758 70.9414C104.098 72.418 108.418 74.6328 112.137 77.5859C115.801 80.5391 118.672 84.2578 120.75 88.7422C122.883 93.1719 123.949 98.3945 123.949 104.41C123.949 108.293 123.375 111.848 122.227 115.074C121.133 118.301 119.602 121.227 117.633 123.852C115.664 126.477 113.312 128.801 110.578 130.824C107.844 132.848 104.836 134.57 101.555 135.992L126.902 187.016L126.82 188H110.824L87.3633 139.273ZM63.4922 126.805H83.8359C87.2266 126.75 90.4258 126.23 93.4336 125.246C96.4414 124.207 99.0938 122.73 101.391 120.816C103.633 118.902 105.41 116.578 106.723 113.844C108.035 111.055 108.691 107.855 108.691 104.246C108.691 100.418 108.062 97.082 106.805 94.2383C105.547 91.3398 103.797 88.9062 101.555 86.9375C99.3125 85.0234 96.6328 83.5742 93.5156 82.5898C90.4531 81.6055 87.0898 81.0859 83.4258 81.0312H63.4922V126.805Z" fill="#2D2D2D"/>
</svg>
